<?xml version="1.0" ?><svg width="64px" height="64px" viewBox="0 0 64 64" data-name="Layer 1" id="Layer_1" xmlns="http://www.w3.org/2000/svg"><defs><style>.cls-1{fill:#ffb300;}.cls-2{fill:#0074ff;}</style></defs><title/><path class="cls-1" d="M24,42a2,2,0,0,1-1.41-3.42l16-16a2,2,0,0,1,2.83,2.83l-16,16A2,2,0,0,1,24,42Z"/><path class="cls-1" d="M40,42a2,2,0,0,1-1.42-.59l-16-16a2,2,0,0,1,2.83-2.83l16,16A2,2,0,0,1,40,42Z"/><path class="cls-2" d="M45.67,57.68H18.33a2,2,0,0,1-1.73-1L2.93,33a2,2,0,0,1,0-2L16.6,7.32a2,2,0,0,1,1.73-1H45.67a2,2,0,0,1,1.73,1L61.07,31a2,2,0,0,1,0,2l-5.34,9.26a2,2,0,0,1-3.47-2L57,32,44.52,10.32h-25L7,32,19.48,53.68h25L47,49.41a2,2,0,0,1,3.46,2l-3,5.27A2,2,0,0,1,45.67,57.68Z"/></svg>